<svg id="eMbAp7FBxZ81" xmlns="http://www.w3.org/2000/svg" xmlns:xlink="http://www.w3.org/1999/xlink" viewBox="0 0 1920 1080" shape-rendering="geometricPrecision" text-rendering="geometricPrecision" project-id="47c0fa7cd2434aeaac1a939cd5e01861" export-id="7f992ff2418f4988abc18089148dbe16" cached="false"><rect width="1809.333125" height="523.14584" rx="0" ry="0" transform="translate(53.688213 522.630951)" fill="#b19d9c" stroke-width="0"/><rect width="975.685261" height="398.751371" rx="0" ry="0" transform="translate(887.336078 62.397558)" fill="none" stroke="#b19d9c"/><rect width="255.609852" height="368.078188" rx="50" ry="50" transform="translate(904.376734 79.438215)" fill="#b19d9c" stroke-width="0"/><rect width="410.125504" height="268.977254" rx="50" ry="50" transform="translate(1177.047554 79.438215)" fill="#b19d9c" stroke-width="0"/><rect width="240.889129" height="271.041857" rx="50" ry="50" transform="matrix(1 0 0 0.984765 1608.674769 80.470575)" fill="#b19d9c" stroke-width="0"/><ellipse rx="34.384853" ry="34.384853" transform="translate(703.01345 707.569766)" fill="#fff" stroke-width="0"/><ellipse rx="34.384853" ry="34.384853" transform="matrix(.64115 0 0 0.64115 1729.119334 213.926843)" fill="#fff" stroke-width="0"/><ellipse rx="34.384853" ry="34.384853" transform="matrix(.64115 0 0 0.64115 1382.110306 213.926842)" fill="#fff" stroke-width="0"/><ellipse rx="34.384853" ry="34.384853" transform="matrix(.64115 0 0 0.64115 1032.18166 213.926843)" fill="#fff" stroke-width="0"/></svg>
